<?xml version="1.0" encoding="iso-8859-1"?>
<!-- Generator: Adobe Illustrator 16.0.0, SVG Export Plug-In . SVG Version: 6.00 Build 0)  -->
<!DOCTYPE svg PUBLIC "-//W3C//DTD SVG 1.1//EN" "http://www.w3.org/Graphics/SVG/1.1/DTD/svg11.dtd">
<svg version="1.1" id="Capa_1" xmlns="http://www.w3.org/2000/svg" xmlns:xlink="http://www.w3.org/1999/xlink" x="0px" y="0px"
	 width="738.561px" height="738.561px" viewBox="0 0 738.561 738.561" style="enable-background:new 0 0 738.561 738.561;"
	 xml:space="preserve">
<g>
	<g>
		<path d="M600.479,293.487l-0.025-0.053c0.03,0.007,0.062,0.015,0.096,0.019C600.527,293.467,600.5,293.473,600.479,293.487z"/>
		<path d="M591.156,278.057c-0.003-0.001-0.005-0.001-0.006-0.001c0.001-0.016,0.006-0.032,0.006-0.047V278.057z"/>
	</g>
	<path d="M160.245,45.261c16.188-4.545,33.001,4.896,37.539,21.091l70.14,193.04c0.561,3.731,4.04,6.306,7.771,5.745
		c3.739-0.568,6.312-4.054,5.751-7.779l-3.773-227.373C277.672,13.417,291.098,0,307.666,0c16.566,0,29.999,13.417,29.999,29.985
		l5.73,232.962c0,5.577,4.517,10.059,10.101,10.086c8.164,0.057,9.763-7.631,9.763-7.631c0.204-0.785,49.029-205.721,49.029-205.721
		c3.274-17.928,14.981-29.255,31.521-28.386c16.547,0.863,29.256,14.982,28.394,31.521L417.254,358.99
		c-1.312,7.674,5.928,9.652,9.729,9.385c6.348-0.442,48.172,13.62,49.428,48.333c0,0,2.96,48.151,0.422,63.211
		c-6.889,40.851-56.196,136.281-77.718,141.676v77.736c0,21.112-20.396,38.282-41.5,38.991
		c-1.396,0.161-122.473,0.238-122.473,0.238c-23.125,0-37.083-18.742-37.083-41.874v-79.562
		c-40.043-29.465-34.025-141.948-34.025-144.845l-0.632-107.989c1.025-22.823-1.473-56.091,23.028-62.697
		c4.881-1.319,24.801-2,25.552-2.743c0.184-0.189-72.833-216.066-72.833-216.066C134.609,66.591,144.057,49.799,160.245,45.261z"/>
</g>
<g>
</g>
<g>
</g>
<g>
</g>
<g>
</g>
<g>
</g>
<g>
</g>
<g>
</g>
<g>
</g>
<g>
</g>
<g>
</g>
<g>
</g>
<g>
</g>
<g>
</g>
<g>
</g>
<g>
</g>
</svg>
